HIERARCHY
ROOT Hips
{
	OFFSET -3.958830 18.904000 13.208200
	CHANNELS 6 Xposition Yposition Zposition Zrotation Yrotation Xrotation 
	JOINT LHipJoint
	{
		OFFSET 0.000000 0.000000 0.000000
		CHANNELS 3 Zrotation Yrotation Xrotation
		JOINT LeftUpLeg
		{
			OFFSET 1.800000 -1.400000 0.085000
			CHANNELS 3 Zrotation Yrotation Xrotation
			JOINT LeftLeg
			{
				OFFSET 2.215000 -6.000000 0.000000
				CHANNELS 3 Zrotation Yrotation Xrotation
				JOINT LeftFoot
				{
					OFFSET 2.500000 -6.900000 0.000000
					CHANNELS 3 Zrotation Yrotation Xrotation
					JOINT LeftToeBase
					{
						OFFSET 0.200000 -0.500000 1.950000
						CHANNELS 3 Zrotation Yrotation Xrotation
						End Site
						{
							OFFSET 0.000000 0.000000 0.000000
						}
					}
				}
			}
		}
	}
	JOINT RHipJoint
	{
		OFFSET 0.000000 0.000000 0.000000
		CHANNELS 3 Zrotation Yrotation Xrotation
		JOINT RightUpLeg
		{
			OFFSET -1.800000 -1.400000 0.085000
			CHANNELS 3 Zrotation Yrotation Xrotation
			JOINT RightLeg
			{
				OFFSET -2.215000 -6.000000 0.000000
				CHANNELS 3 Zrotation Yrotation Xrotation
				JOINT RightFoot
				{
					OFFSET -2.500000 -6.900000 0.000000
					CHANNELS 3 Zrotation Yrotation Xrotation
					JOINT RightToeBase
					{
						OFFSET -0.200000 -0.500000 1.950000
						CHANNELS 3 Zrotation Yrotation Xrotation
						End Site
						{
							OFFSET 0.000000 0.000000 0.000000
						}
					}
				}
			}
		}
	}
	JOINT LowerBack
	{
		OFFSET 0.000000 0.000000 0.000000
		CHANNELS 3 Zrotation Yrotation Xrotation
		JOINT Spine
		{
			OFFSET -0.087000 1.940000 -0.288900
			CHANNELS 3 Zrotation Yrotation Xrotation
			JOINT Spine1
			{
				OFFSET 0.000000 1.950000 0.060000
				CHANNELS 3 Zrotation Yrotation Xrotation
				JOINT Neck
				{
					OFFSET 0.000000 0.000000 0.000000
					CHANNELS 3 Zrotation Yrotation Xrotation
					JOINT Neck1
					{
						OFFSET 0.000000 1.600000 0.340000
						CHANNELS 3 Zrotation Yrotation Xrotation
						JOINT Head
						{
							OFFSET 0.000000 1.667000 -0.240000
							CHANNELS 3 Zrotation Yrotation Xrotation
							End Site
							{
								OFFSET 0.000000 0.000000 0.000000
							}
						}
					}
				}
				JOINT LeftShoulder
				{
					OFFSET 0.000000 0.000000 0.000000
					CHANNELS 3 Zrotation Yrotation Xrotation
					JOINT LeftArm
					{
						OFFSET 2.700000 1.550000 -0.730000
						CHANNELS 3 Zrotation Yrotation Xrotation
						JOINT LeftForeArm
						{
							OFFSET 5.450000 0.000000 0.000000
							CHANNELS 3 Zrotation Yrotation Xrotation
							JOINT LeftHand
							{
								OFFSET 3.450000 0.000000 0.000000
								CHANNELS 3 Zrotation Yrotation Xrotation
								JOINT LeftHandIndex1
								{
									OFFSET 0.750000 0.000000 0.000000
									CHANNELS 3 Zrotation Yrotation Xrotation
									End Site
									{
										OFFSET 0.000000 0.000000 0.000000
									}
								}
							}
						}
					}
				}
				JOINT RightShoulder
				{
					OFFSET 0.000000 0.000000 0.000000
					CHANNELS 3 Zrotation Yrotation Xrotation
					JOINT RightArm
					{
						OFFSET -2.700000 1.550000 -0.730000
						CHANNELS 3 Zrotation Yrotation Xrotation
						JOINT RightForeArm
						{
							OFFSET -5.450000 0.000000 0.000000
							CHANNELS 3 Zrotation Yrotation Xrotation
							JOINT RightHand
							{
								OFFSET -3.450000 0.000000 0.000000
								CHANNELS 3 Zrotation Yrotation Xrotation
								JOINT RightHandIndex1
								{
									OFFSET -0.750000 0.000000 0.000000
									CHANNELS 3 Zrotation Yrotation Xrotation
									End Site
									{
										OFFSET 0.000000 0.000000 0.000000
									}
								}
							}
						}
					}
				}
			}
		}
	}
}
MOTION
Frames: 12
Frame Time: 0.016667
-1.113860 17.112850 -1.391990 -4.100800 9.808209 -0.725875 -14.832169 13.006381 2.099910 10.881011 0.174275 -9.539510 -1.963461 4.963976 12.440570 -0.603212 4.023558 3.482993 0.408590 0.053640 0.077810 18.449919 -12.034393 2.538954 -21.057576 1.888025 -14.488242 11.306101 -8.921015 23.114024 -0.224658 -5.490169 2.657671 0.191230 0.546730 0.140740 -4.540688 1.031166 -6.649623 8.225571 3.445594 2.301452 -1.497735 2.919998 8.473805 -0.130267 -1.183800 -8.434968 -2.195642 -0.110664 32.269000 1.419660 -3.812230 -1.918260 -16.288213 -8.946683 5.297875 -40.180490 -3.156241 -2.233078 14.310464 -17.166955 -2.719232 -3.932809 2.928285 0.321220 0.345640 -0.360770 0.362330 17.019100 12.830060 3.741862 55.343333 24.090368 2.717592 -2.235225 30.564857 -2.402405 1.861914 -1.553980 -0.298310 0.306330 -0.016410 -0.147600 
-1.123350 17.112590 -1.395490 -4.278533 10.159985 -0.757443 -14.795280 13.000436 2.096456 11.114647 0.163440 -9.792967 -1.918568 4.977638 12.593140 -0.610702 4.023262 3.485825 0.409420 0.054170 0.078920 18.480070 -12.085363 2.520148 -20.621122 1.833452 -14.052817 10.971190 -8.778721 22.879569 -0.220394 -5.438309 2.692754 0.195340 0.551650 0.129340 -4.651010 1.114067 -6.644049 9.223190 3.247406 2.252924 -2.412560 2.796792 8.596921 0.013448 -1.521559 -8.435927 -2.736173 0.158715 32.346566 1.440800 -3.814130 -1.995640 -16.054893 -8.741804 5.302328 -40.300265 -2.845009 -2.395613 15.179959 -17.551101 -2.856138 -3.927106 2.916436 0.323710 0.344280 -0.364030 0.366670 16.410559 12.793755 3.762020 55.958995 24.732494 3.236933 -1.644740 31.155610 -2.263736 1.856692 -1.546050 -0.307340 0.322200 -0.018820 -0.148500 
-1.137810 17.115440 -1.398340 -4.202254 10.980582 -0.800640 -14.752041 12.986475 2.103662 11.110854 0.124768 -10.082635 -1.809772 4.935033 12.652401 -0.635320 4.005389 3.495447 0.394530 0.037880 0.069360 18.513851 -12.185747 2.468382 -20.114898 1.660992 -13.193916 10.058405 -8.473449 22.451152 -0.206415 -5.344870 2.741342 0.194470 0.566540 0.116860 -4.790832 1.262188 -6.626805 10.306989 2.952051 2.140418 -3.716363 2.614355 8.870894 0.254641 -1.887491 -8.470559 -3.266030 0.456072 32.563608 1.483140 -3.926620 -2.153000 -15.284056 -8.371641 5.264251 -40.882109 -2.559498 -2.611267 16.753057 -17.994986 -3.106479 -3.934656 2.892771 0.331180 0.345570 -0.373050 0.360900 15.078612 12.634184 3.853518 57.192116 25.849524 4.167523 -0.350674 32.514843 -1.948236 1.843162 -1.529224 -0.326100 0.347190 -0.003020 -0.150570 
-1.158870 17.122080 -1.404770 -4.183776 12.453732 -0.753673 -14.715675 12.957979 2.115929 11.346630 0.051084 -10.585717 -1.896185 4.930684 12.591245 -0.657022 4.017206 3.506123 0.349300 -0.013470 0.033320 18.545872 -12.248499 2.432143 -19.483390 1.485952 -12.340183 9.463297 -8.241112 21.855548 -0.185885 -5.270835 2.789509 0.178820 0.610670 0.101570 -4.935554 1.372761 -6.624544 11.583348 2.542863 2.002916 -5.234517 2.341976 9.075583 0.516093 -2.314055 -8.509700 -3.930566 0.582949 32.529732 1.587330 -4.410300 -1.880170 -14.807191 -7.966826 5.198879 -41.491839 -2.152983 -2.966812 19.010064 -18.924957 -3.536034 -3.953054 2.860338 0.330510 0.359540 -0.399280 0.357020 13.963932 12.418044 4.063240 58.218991 26.543383 4.668632 1.693515 35.294308 -1.412704 1.819447 -1.512801 -0.359430 0.386040 0.029970 -0.144170 
-1.176710 17.128870 -1.406480 -4.119401 14.177489 -0.735835 -14.685929 12.909384 2.149981 11.620718 -0.016492 -10.781400 -2.227723 4.917024 12.043352 -0.693504 4.047840 3.512759 0.311930 -0.066730 0.013630 18.575263 -12.321628 2.375035 -18.626078 1.288991 -11.352412 8.458713 -7.899221 21.261568 -0.169928 -5.170596 2.854004 0.164490 0.648480 0.095850 -5.076067 1.520258 -6.617939 12.869613 2.180222 1.783391 -6.883343 2.101065 9.327585 0.943137 -2.580905 -8.489848 -4.305859 0.423025 32.512959 1.195600 -4.846920 -1.975680 -14.482882 -7.354238 5.080568 -42.114578 -1.439453 -3.573196 21.460635 -21.196971 -4.258247 -3.965805 2.814695 0.347130 0.376440 -0.417730 0.350540 12.687590 11.895218 4.235070 59.692090 27.317361 5.415441 4.267817 38.221056 -0.620104 1.785199 -1.497566 -0.396990 0.427010 0.064050 -0.150890 
-1.187610 17.139300 -1.410320 -3.998059 15.938231 -0.587312 -14.656454 12.824933 2.192587 11.951224 -0.107725 -11.234073 -2.935196 5.012460 11.672111 -0.696713 4.079339 3.502990 0.295440 -0.096050 0.009400 18.607534 -12.385859 2.338738 -17.808498 1.080736 -10.442424 7.504672 -7.507515 20.282539 -0.154682 -5.059351 2.916420 0.150320 0.661920 0.106920 -5.222247 1.723664 -6.622656 14.186700 1.817976 1.502724 -8.692568 1.838782 9.573031 1.462524 -2.800198 -8.467027 -4.512914 0.263171 32.219137 0.594080 -5.153010 -1.795780 -14.028082 -6.308488 4.857364 -43.296512 -0.553317 -4.369508 24.535916 -24.280665 -5.272041 -3.968138 2.815415 0.340250 0.391190 -0.429640 0.343240 11.101874 10.949240 4.522260 61.817544 27.849331 5.969166 7.324106 42.747408 0.372084 1.756855 -1.539472 -0.399620 0.425530 0.078280 -0.152200 
-1.186490 17.152680 -1.411550 -4.061373 17.636470 -0.434611 -14.624502 12.728084 2.223938 12.354242 -0.191234 -11.582146 -3.476903 5.039679 11.089742 -0.695316 4.098472 3.508075 0.263800 -0.131610 -0.026690 18.648340 -12.430030 2.320196 -16.971072 0.934699 -9.708005 6.848871 -7.218435 19.483612 -0.134630 -4.998304 2.965178 0.138510 0.696800 0.104380 -5.383322 1.932577 -6.622264 15.912765 1.491205 1.094198 -10.521573 1.548133 9.724496 1.929798 -3.090280 -8.352364 -4.818803 0.298136 31.617757 0.396570 -5.564660 -1.131190 -13.938084 -5.043057 4.632495 -44.424779 0.589590 -5.177236 27.578112 -27.815691 -6.483074 -3.969600 2.820751 0.318180 0.413260 -0.460670 0.346950 9.963024 9.781425 4.723773 63.628862 28.178231 6.674018 10.801145 47.237870 1.781405 1.737116 -1.599884 -0.412830 0.432230 0.097230 -0.141360 
-1.175870 17.159910 -1.413390 -3.702396 19.236268 -0.097631 -14.620930 12.654744 2.241412 12.143857 -0.288615 -11.981368 -3.800484 5.034758 10.910005 -0.703066 4.072811 3.517753 0.249320 -0.136700 -0.045530 18.658382 -12.464439 2.314480 -16.799493 0.817116 -9.230891 6.419113 -7.030952 18.694228 -0.121453 -4.972724 2.986493 0.140390 0.707960 0.110410 -5.457482 2.097826 -6.612428 16.755453 1.329171 0.748505 -11.725703 1.380733 9.929589 2.425415 -3.117730 -8.238751 -4.685214 -0.110319 30.714724 -0.554390 -5.807600 -0.882790 -13.325407 -3.498953 4.294302 -45.794481 1.504012 -5.898563 28.918845 -31.620038 -7.485170 -3.970494 2.827382 0.292620 0.435830 -0.476480 0.344710 8.323916 8.214353 4.950938 65.269857 28.074988 7.366336 15.867169 52.678321 4.205722 1.713790 -1.700603 -0.411010 0.425140 0.106090 -0.135370 
-1.158010 17.165180 -1.408870 -3.345649 20.614259 0.329584 -14.620832 12.593105 2.241893 11.819162 -0.399862 -12.445181 -3.855953 5.003654 11.028423 -0.693609 4.020142 3.545267 0.253930 -0.135210 -0.042900 18.661031 -12.520476 2.320983 -16.644063 0.718032 -8.792253 5.861354 -6.781878 17.839380 -0.107105 -4.938121 3.020485 0.139030 0.714550 0.117030 -5.510270 2.298933 -6.595713 17.223923 1.400659 0.399253 -12.493595 1.393260 10.015895 2.855806 -2.811535 -8.179066 -3.949734 -0.591264 29.595722 -1.131340 -6.035130 -0.224930 -12.564038 -1.866372 4.027926 -47.324850 2.689850 -6.842324 30.237479 -36.399541 -8.778217 -3.948858 2.854720 0.259530 0.455820 -0.495460 0.353380 6.687940 6.395766 5.214651 66.568707 27.034556 7.917788 23.151946 58.442118 8.287702 1.707969 -1.847901 -0.399110 0.404410 0.091110 -0.129840 
-1.129970 17.180650 -1.407250 -3.113591 21.771128 0.470663 -14.610502 12.528704 2.256333 11.750236 -0.435766 -12.520471 -4.201107 5.051664 10.884133 -0.709264 4.031350 3.548718 0.214330 -0.192960 -0.044200 18.668880 -12.556559 2.349241 -16.673767 0.634709 -8.141449 5.689089 -6.675746 16.883817 -0.102356 -4.915479 3.046879 0.110750 0.710940 0.100240 -5.584057 2.474344 -6.632347 17.922509 1.537771 0.377788 -13.030357 1.518227 10.110414 3.231754 -2.516407 -8.386976 -3.367130 -1.280248 29.482776 -1.857940 -6.347830 -0.104000 -12.468790 -0.963643 4.127707 -48.615780 4.680017 -8.261814 31.346319 -41.962578 -10.486291 -3.899488 2.806953 0.284520 0.452880 -0.500360 0.334930 5.795260 5.407223 5.675122 66.875372 25.314762 7.972277 32.723787 64.418125 14.610222 1.724556 -1.918409 -0.430200 0.415950 0.107440 -0.149590 
-1.089440 17.195880 -1.407670 -3.030419 22.830209 0.663989 -14.594735 12.445922 2.268589 11.640204 -0.484223 -12.618194 -4.433089 5.019599 10.604259 -0.686126 3.965952 3.566902 0.216270 -0.191000 -0.031690 18.681746 -12.610761 2.386512 -16.629258 0.594943 -7.705677 5.509169 -6.549039 16.052626 -0.120820 -4.884815 3.063527 0.093310 0.673700 0.103180 -5.670743 2.723143 -6.671151 18.669372 2.002416 0.390920 -13.143533 1.935035 10.192499 3.463423 -2.030558 -8.666216 -2.479589 -2.442533 29.188767 -2.294960 -7.025280 -0.371270 -12.167487 -0.157017 4.279968 -50.079551 6.366165 -9.753071 31.688822 -47.856472 -12.218508 -3.809199 2.813822 0.294180 0.429860 -0.474000 0.333410 4.984868 4.442462 6.176372 67.126467 22.910808 7.992625 43.992229 70.389205 23.090421 1.798727 -1.977845 -0.411120 0.392960 0.089320 -0.149570 
-1.040850 17.204610 -1.408850 -3.083590 24.104393 0.970755 -14.590189 12.353219 2.285768 11.646860 -0.552782 -12.998037 -4.761917 5.037700 10.501139 -0.661252 3.910693 3.565134 0.215190 -0.192880 -0.009560 18.683226 -12.675464 2.414460 -16.565074 0.603903 -7.556427 5.437403 -6.518120 15.709630 -0.127586 -4.889834 3.055747 0.071100 0.626190 0.121660 -5.730509 3.009374 -6.698160 19.236728 2.677789 0.362228 -12.969803 2.525026 10.191953 3.774489 -1.136125 -8.986385 -0.878336 -4.069166 28.250422 -3.403020 -7.508620 -0.197740 -12.044637 0.425917 4.455485 -51.166557 7.930926 -11.173817 31.205799 -53.899785 -13.846654 -3.739017 2.855557 0.280280 0.423170 -0.457510 0.311270 4.174667 3.411276 6.693436 67.252191 19.618189 8.796339 61.334573 76.811715 36.850489 2.075047 -1.787202 -0.375180 0.338240 0.078120 -0.156690 
